Pista 0:
MetaMessage('set_tempo', tempo=500000, time=0)
MetaMessage('end_of_track', time=0)
Pista 1:
note_on channel=0 note=70 velocity=100 time=0
note_off channel=0 note=70 velocity=100 time=960
note_on channel=0 note=72 velocity=100 time=0
note_off channel=0 note=72 velocity=100 time=960
note_on channel=0 note=70 velocity=100 time=0
note_off channel=0 note=70 velocity=100 time=960
note_on channel=0 note=69 velocity=100 time=0
note_off channel=0 note=69 velocity=100 time=960
note_on channel=0 note=70 velocity=100 time=0
note_off channel=0 note=70 velocity=100 time=960
note_on channel=0 note=68 velocity=100 time=0
note_off channel=0 note=68 velocity=100 time=960
note_on channel=0 note=70 velocity=100 time=0
note_off channel=0 note=70 velocity=100 time=960
note_on channel=0 note=72 velocity=100 time=0
note_off channel=0 note=72 velocity=100 time=960
note_on channel=0 note=70 velocity=100 time=0
note_off channel=0 note=70 velocity=100 time=960
note_on channel=0 note=68 velocity=100 time=0
note_off channel=0 note=68 velocity=100 time=960
note_on channel=0 note=66 velocity=100 time=0
note_off channel=0 note=66 velocity=100 time=960
note_on channel=0 note=65 velocity=100 time=0
note_off channel=0 note=65 velocity=100 time=960
note_on channel=0 note=66 velocity=100 time=0
note_off channel=0 note=66 velocity=100 time=960
note_on channel=0 note=63 velocity=100 time=0
note_off channel=0 note=63 velocity=100 time=960
note_on channel=0 note=62 velocity=100 time=0
note_off channel=0 note=62 velocity=100 time=960
note_on channel=0 note=60 velocity=100 time=0
note_off channel=0 note=60 velocity=100 time=960
note_on channel=0 note=63 velocity=100 time=0
note_off channel=0 note=63 velocity=100 time=960
note_on channel=0 note=65 velocity=100 time=0
note_off channel=0 note=65 velocity=100 time=960
note_on channel=0 note=70 velocity=100 time=0
note_off channel=0 note=70 velocity=100 time=960
note_on channel=0 note=68 velocity=100 time=0
note_off channel=0 note=68 velocity=100 time=960
note_on channel=0 note=66 velocity=100 time=0
note_off channel=0 note=66 velocity=100 time=960
note_on channel=0 note=65 velocity=100 time=0
note_off channel=0 note=65 velocity=100 time=960
note_on channel=0 note=63 velocity=100 time=0
note_off channel=0 note=63 velocity=100 time=960
note_on channel=0 note=66 velocity=100 time=0
note_off channel=0 note=66 velocity=100 time=960
note_on channel=0 note=68 velocity=100 time=0
note_off channel=0 note=68 velocity=100 time=960
note_on channel=0 note=70 velocity=100 time=0
note_off channel=0 note=70 velocity=100 time=960
note_on channel=0 note=68 velocity=100 time=0
note_off channel=0 note=68 velocity=100 time=960
note_on channel=0 note=70 velocity=100 time=0
note_off channel=0 note=70 velocity=100 time=960
note_on channel=0 note=63 velocity=100 time=0
note_off channel=0 note=63 velocity=100 time=960
note_on channel=0 note=61 velocity=100 time=0
note_off channel=0 note=61 velocity=100 time=960
note_on channel=0 note=59 velocity=100 time=0
note_off channel=0 note=59 velocity=100 time=960
note_on channel=0 note=58 velocity=100 time=0
note_off channel=0 note=58 velocity=100 time=960
note_on channel=0 note=59 velocity=100 time=0
note_off channel=0 note=59 velocity=100 time=960
note_on channel=0 note=58 velocity=100 time=0
note_off channel=0 note=58 velocity=100 time=960
note_on channel=0 note=63 velocity=100 time=0
note_off channel=0 note=63 velocity=100 time=960
note_on channel=0 note=61 velocity=100 time=0
note_off channel=0 note=61 velocity=100 time=960
note_on channel=0 note=63 velocity=100 time=0
note_off channel=0 note=63 velocity=100 time=960
note_on channel=0 note=65 velocity=100 time=0
note_off channel=0 note=65 velocity=100 time=960
note_on channel=0 note=66 velocity=100 time=0
note_off channel=0 note=66 velocity=100 time=960
note_on channel=0 note=63 velocity=100 time=0
note_off channel=0 note=63 velocity=100 time=960
note_on channel=0 note=62 velocity=100 time=0
note_off channel=0 note=62 velocity=100 time=960
note_on channel=0 note=63 velocity=100 time=0
note_off channel=0 note=63 velocity=100 time=960
note_on channel=0 note=66 velocity=100 time=0
note_off channel=0 note=66 velocity=100 time=960
note_on channel=0 note=65 velocity=100 time=0
note_off channel=0 note=65 velocity=100 time=960
note_on channel=0 note=63 velocity=100 time=0
note_off channel=0 note=63 velocity=100 time=960
note_on channel=0 note=63 velocity=100 time=0
note_off channel=0 note=63 velocity=100 time=960
note_on channel=0 note=65 velocity=100 time=0
note_off channel=0 note=65 velocity=100 time=960
note_on channel=0 note=63 velocity=100 time=0
note_off channel=0 note=63 velocity=100 time=960
note_on channel=0 note=70 velocity=100 time=0
note_off channel=0 note=70 velocity=100 time=960
note_on channel=0 note=70 velocity=100 time=0
note_off channel=0 note=70 velocity=100 time=960
note_on channel=0 note=68 velocity=100 time=0
note_off channel=0 note=68 velocity=100 time=960
note_on channel=0 note=70 velocity=100 time=0
note_off channel=0 note=70 velocity=100 time=960
note_on channel=0 note=66 velocity=100 time=0
note_off channel=0 note=66 velocity=100 time=960
note_on channel=0 note=65 velocity=100 time=0
note_off channel=0 note=65 velocity=100 time=960
note_on channel=0 note=63 velocity=100 time=0
note_off channel=0 note=63 velocity=100 time=960
note_on channel=0 note=65 velocity=100 time=0
note_off channel=0 note=65 velocity=100 time=960
note_on channel=0 note=70 velocity=100 time=0
note_off channel=0 note=70 velocity=100 time=960
note_on channel=0 note=68 velocity=100 time=0
note_off channel=0 note=68 velocity=100 time=960
note_on channel=0 note=66 velocity=100 time=0
note_off channel=0 note=66 velocity=100 time=960
note_on channel=0 note=65 velocity=100 time=0
note_off channel=0 note=65 velocity=100 time=960
note_on channel=0 note=61 velocity=100 time=0
note_off channel=0 note=61 velocity=100 time=960
note_on channel=0 note=66 velocity=100 time=0
note_off channel=0 note=66 velocity=100 time=960
note_on channel=0 note=65 velocity=100 time=0
note_off channel=0 note=65 velocity=100 time=960
note_on channel=0 note=66 velocity=100 time=0
note_off channel=0 note=66 velocity=100 time=960
note_on channel=0 note=70 velocity=100 time=0
note_off channel=0 note=70 velocity=100 time=960
note_on channel=0 note=70 velocity=100 time=0
note_off channel=0 note=70 velocity=100 time=960
note_on channel=0 note=68 velocity=100 time=0
note_off channel=0 note=68 velocity=100 time=960
note_on channel=0 note=66 velocity=100 time=0
note_off channel=0 note=66 velocity=100 time=960
note_on channel=0 note=65 velocity=100 time=0
note_off channel=0 note=65 velocity=100 time=960
note_on channel=0 note=68 velocity=100 time=0
note_off channel=0 note=68 velocity=100 time=960
note_on channel=0 note=70 velocity=100 time=0
note_off channel=0 note=70 velocity=100 time=960
note_on channel=0 note=71 velocity=100 time=0
note_off channel=0 note=71 velocity=100 time=960
note_on channel=0 note=70 velocity=100 time=0
note_off channel=0 note=70 velocity=100 time=960
note_on channel=0 note=68 velocity=100 time=0
note_off channel=0 note=68 velocity=100 time=960
note_on channel=0 note=66 velocity=100 time=0
note_off channel=0 note=66 velocity=100 time=960
note_on channel=0 note=65 velocity=100 time=0
note_off channel=0 note=65 velocity=100 time=960
note_on channel=0 note=70 velocity=100 time=0
note_off channel=0 note=70 velocity=100 time=960
note_on channel=0 note=68 velocity=100 time=0
note_off channel=0 note=68 velocity=100 time=960
note_on channel=0 note=66 velocity=100 time=0
note_off channel=0 note=66 velocity=100 time=960
note_on channel=0 note=65 velocity=100 time=0
note_off channel=0 note=65 velocity=100 time=960
note_on channel=0 note=63 velocity=100 time=0
note_off channel=0 note=63 velocity=100 time=960
note_on channel=0 note=58 velocity=100 time=0
note_off channel=0 note=58 velocity=100 time=960
note_on channel=0 note=63 velocity=100 time=0
note_off channel=0 note=63 velocity=100 time=960
note_on channel=0 note=62 velocity=100 time=0
note_off channel=0 note=62 velocity=100 time=960
note_on channel=0 note=60 velocity=100 time=0
note_off channel=0 note=60 velocity=100 time=960
note_on channel=0 note=63 velocity=100 time=0
note_off channel=0 note=63 velocity=100 time=960
note_on channel=0 note=65 velocity=100 time=0
note_off channel=0 note=65 velocity=100 time=960
note_on channel=0 note=66 velocity=100 time=0
note_off channel=0 note=66 velocity=100 time=960
note_on channel=0 note=68 velocity=100 time=0
note_off channel=0 note=68 velocity=100 time=960
note_on channel=0 note=70 velocity=100 time=0
note_off channel=0 note=70 velocity=100 time=960
note_on channel=0 note=68 velocity=100 time=0
note_off channel=0 note=68 velocity=100 time=960
note_on channel=0 note=70 velocity=100 time=0
note_off channel=0 note=70 velocity=100 time=960
note_on channel=0 note=71 velocity=100 time=0
note_off channel=0 note=71 velocity=100 time=960
note_on channel=0 note=70 velocity=100 time=0
note_off channel=0 note=70 velocity=100 time=960
note_on channel=0 note=68 velocity=100 time=0
note_off channel=0 note=68 velocity=100 time=960
note_on channel=0 note=66 velocity=100 time=0
note_off channel=0 note=66 velocity=100 time=960
note_on channel=0 note=65 velocity=100 time=0
note_off channel=0 note=65 velocity=100 time=960
note_on channel=0 note=63 velocity=100 time=0
note_off channel=0 note=63 velocity=100 time=960
note_on channel=0 note=62 velocity=100 time=0
note_off channel=0 note=62 velocity=100 time=960
note_on channel=0 note=63 velocity=100 time=0
note_off channel=0 note=63 velocity=100 time=960
MetaMessage('end_of_track', time=0)
